<svg xmlns="http://www.w3.org/2000/svg" width="188" height="194" viewBox="0 0 188 194" version="1.1">
	<path d="M 21.007 14.583 C 16.457 16.569, 13.258 19.618, 10.903 24.210 C 9.086 27.753, 9 31.082, 9 98 C 9 164.918, 9.086 168.247, 10.903 171.790 C 13.108 176.089, 16.183 179.101, 20.700 181.383 C 23.557 182.827, 31.421 183, 93.990 183 C 160.918 183, 164.247 182.914, 167.790 181.097 C 172.089 178.892, 175.101 175.817, 177.383 171.300 C 178.827 168.441, 178.998 160.583, 178.984 97.800 L 178.967 27.500 176.734 23.595 C 175.505 21.447, 172.771 18.297, 170.658 16.595 L 166.815 13.500 95.658 13.279 C 33.748 13.086, 24.046 13.256, 21.007 14.583 M 60.796 64.796 C 54.308 71.284, 49 77.134, 49 77.796 C 49 79.355, 52.645 83, 54.204 83 C 55.776 83, 79 59.776, 79 58.204 C 79 57.542, 78.100 56.100, 77 55 C 75.900 53.900, 74.458 53, 73.796 53 C 73.134 53, 67.284 58.308, 60.796 64.796 M 75.771 79.771 C 61.047 94.494, 49 107.094, 49 107.771 C 49 109.362, 52.638 113, 54.229 113 C 55.836 113, 109 59.836, 109 58.229 C 109 57.553, 108.100 56.100, 107 55 C 105.900 53.900, 104.447 53, 103.771 53 C 103.094 53, 90.494 65.047, 75.771 79.771 M 91.265 94.250 C 67.308 118.187, 49.798 136.450, 49.545 137.763 C 48.970 140.751, 52.998 143.622, 55.683 142.138 C 58.627 140.510, 139 59.559, 139 58.222 C 139 56.638, 135.359 53, 133.775 53 C 133.101 53, 113.972 71.563, 91.265 94.250 M 105.771 109.771 C 91.047 124.494, 79 137.094, 79 137.771 C 79 139.362, 82.638 143, 84.229 143 C 85.836 143, 139 89.836, 139 88.229 C 139 86.638, 135.362 83, 133.771 83 C 133.094 83, 120.494 95.047, 105.771 109.771 M 120.796 124.796 C 114.308 131.284, 109 137.134, 109 137.796 C 109 139.355, 112.645 143, 114.204 143 C 115.776 143, 139 119.776, 139 118.204 C 139 116.645, 135.355 113, 133.796 113 C 133.134 113, 127.284 118.308, 120.796 124.796" stroke="none" fill="#228be6" fill-rule="evenodd"/>
</svg>