<svg xmlns="http://www.w3.org/2000/svg"  viewBox="0 0 48 48" width="48px" height="48px" baseProfile="basic"><linearGradient id="ndsBfiwR05QyafXs9DBbUa" x1="15.809" x2="28.697" y1="5.434" y2="40.619" gradientUnits="userSpaceOnUse"><stop offset="0" stop-color="#28afea"/><stop offset="1" stop-color="#047ed6"/></linearGradient><path fill="url(#ndsBfiwR05QyafXs9DBbUa)" d="M23.215,4.368L4.237,27.142c-0.366,0.44-0.3,1.094,0.147,1.452l18.978,15.183	c0.373,0.298,0.903,0.298,1.276,0l18.978-15.183c0.447-0.357,0.513-1.012,0.147-1.452L24.785,4.368	C24.376,3.877,23.624,3.877,23.215,4.368z"/><path fill="#fff" d="M37.531,25.905c-0.325-0.775-0.907-1.372-1.64-1.68c-0.733-0.308-1.566-0.308-2.345,0.001	c-0.364,0.137-0.698,0.229-0.782,0.229c-0.057-0.001-0.335-0.198-0.661-0.571c-1.695-1.971-4.692-5.6-4.86-5.885	c-0.106-0.176-0.149-0.251-0.148-0.348c0.001-0.104,0.051-0.237,0.164-0.526c0.4-1,0.273-2.139-0.341-3.046	c-0.288-0.426-0.673-0.781-1.112-1.026c-0.47-0.262-0.982-0.395-1.523-0.395c-0.96,0-1.458,0.162-2.129,0.693	c-1.231,0.972-1.588,2.601-0.887,4.054l0.319,0.668l-1.1,1.049c-1.69,1.605-5.061,4.675-5.464,4.978	c-0.177,0.135-0.26,0.195-0.359,0.204c-0.107,0.01-0.256-0.04-0.525-0.129c-0.527-0.175-1.081-0.198-1.603-0.067	c-0.521,0.131-1.012,0.416-1.421,0.825c-0.617,0.617-0.814,1.122-0.814,2.082c0,0.996,0.216,1.485,0.965,2.179	c1.038,0.962,2.361,1.053,3.631,0.25c0.352-0.225,0.553-0.299,0.653-0.241c0.098,0.055,1.535,0.833,3.075,1.665	c1.619,0.875,3.001,1.645,3.109,1.723c0.106,0.08,0.128,0.104,0.118,0.174c-0.014,0.102-0.101,0.286-0.255,0.605	c-0.432,0.928-0.462,2.098-0.072,2.845c0.31,0.6,1.057,1.251,1.7,1.484c0.312,0.115,0.584,0.172,0.874,0.172	c0.276,0,0.568-0.052,0.928-0.155c0.355-0.106,0.743-0.33,1.094-0.629c0.355-0.303,0.639-0.656,0.801-0.996	c0.308-0.647,0.337-1.662,0.065-2.312c-0.263-0.615-0.232-0.745,0.277-1.163c0.453-0.364,1.704-1.245,2.743-1.957	c1.434-0.982,2.181-1.454,2.268-1.476c0.001,0,0.001,0,0.002,0c0.096-0.027,0.395,0.044,0.925,0.334	c0.638,0.346,0.872,0.411,1.473,0.411c0.864,0,1.349-0.187,1.995-0.769c0.446-0.404,0.78-0.955,0.94-1.55	C37.768,27.008,37.741,26.403,37.531,25.905z M24.751,32.182c-0.011-0.012-0.043-0.061-0.071-0.255	c-0.029-0.197-0.051-0.501-0.068-0.955c-0.038-0.977-0.054-2.653-0.068-5.04l-0.032-5.997l0.67-0.446	c0.43-0.286,0.735-0.447,0.792-0.455c0.012,0.001,0.07,0.014,0.259,0.185c0.154,0.139,0.364,0.355,0.643,0.66	c0.545,0.595,1.363,1.541,2.651,3.066l2.294,2.727l-0.031,0.865c-0.011,0.491-0.053,0.99-0.083,1.108	c-0.052,0.201-1.33,1.032-5.41,3.596c0,0,0,0,0,0C25.499,31.746,24.865,32.128,24.751,32.182z M15.992,25.997	c-0.12-0.319-0.206-0.579-0.226-0.654c0.149-0.183,1.562-1.502,3.421-3.191c1.831-1.664,3.263-2.932,3.493-3.094	c0.052,0.049,0.18,0.195,0.353,0.427l0.327,0.448v6.021c0,2.594-0.01,4.004-0.033,4.866c-0.012,0.451-0.029,0.77-0.051,0.977	c-0.027,0.252-0.058,0.294-0.063,0.299c-0.109,0.09-0.736-0.262-1.315-0.6c-1.675-0.966-3.095-1.819-4.107-2.468	c-1.42-0.909-1.581-1.123-1.595-1.169c0-0.109,0-0.422,0.011-0.703C16.219,26.867,16.127,26.369,15.992,25.997z"/></svg>