<?xml version="1.0" encoding="utf-8"?>
<svg xmlns="http://www.w3.org/2000/svg" viewBox="251.797 16.6616 44.5624 63.3684" width="44.5624px" height="63.3684px">
  <radialGradient id="SVGID_1_" cx="51.0661" cy="518.9436" r="21.8169" gradientTransform="matrix(0.617641, 0, 0, -0.631686, 236.339607, 364.092841)" gradientUnits="userSpaceOnUse">
    <stop offset="0" style="stop-color:#BFE6F9"/>
    <stop offset="1" style="stop-color:#1478C7"/>
  </radialGradient>
  <radialGradient id="SVGID_00000066478209147211681180000000696617235222217398_" cx="40.8643" cy="533.8768" r="21.8169" gradientTransform="matrix(0.757751, 0, 0, -0.774983, 236.165092, 450.218269)" gradientUnits="userSpaceOnUse">
    <stop offset="0" style="stop-color:#A6D71C"/>
    <stop offset="0.961" style="stop-color:#23A03D"/>
    <stop offset="1" style="stop-color:#23A03D"/>
  </radialGradient>
  <radialGradient id="SVGID_00000035522476625016532690000014500818151814940820_" cx="36.5053" cy="549.258" r="21.8169" gradientTransform="matrix(0.963093, 0, 0, -0.984994, 236.151314, 576.384162)" gradientUnits="userSpaceOnUse">
    <stop offset="0" style="stop-color:#A6D71C"/>
    <stop offset="0.961" style="stop-color:#23A03D"/>
    <stop offset="1" style="stop-color:#23A03D"/>
  </radialGradient>
  <radialGradient id="SVGID_00000026152200350366713160000011815320965200904607_" cx="29.0154" cy="568.5759" r="21.8169" gradientTransform="matrix(1.273022, 0, 0, -1.30197, 235.911964, 766.46833)" gradientUnits="userSpaceOnUse">
    <stop offset="0" style="stop-color:#A6D71C"/>
    <stop offset="0.961" style="stop-color:#23A03D"/>
    <stop offset="1" style="stop-color:#23A03D"/>
  </radialGradient>
  <path class="st0" d="M 288.546 63.851 C 287.508 63.851 286.755 64.652 286.755 65.543 C 286.755 66.433 287.508 67.234 288.546 67.234 C 289.585 67.234 290.388 66.505 290.388 65.543 C 290.388 64.58 289.585 63.851 288.546 63.851 Z M 262.703 68.917 C 259.396 68.917 256.751 71.143 256.751 74.469 C 256.751 77.796 259.396 80.03 262.703 80.03 C 264.21 80.03 265.634 79.576 266.813 78.459 L 265.09 76.792 C 264.444 77.448 263.615 77.917 262.436 77.917 C 260.903 77.917 259.672 76.97 259.489 75.4 L 267.835 75.4 L 267.835 74.671 C 267.835 70.989 265.767 68.917 262.703 68.917 Z M 273.318 68.917 C 271.108 68.917 268.915 69.978 268.915 72.332 C 268.915 76.371 274.817 74.648 274.817 76.832 C 274.817 77.675 273.787 78.047 272.992 78.047 C 271.829 78.047 271.1 77.496 270.397 76.752 L 268.631 78.459 C 269.744 79.625 271.175 80.03 272.833 80.03 C 275.068 80.03 277.555 79.148 277.555 76.63 C 277.555 72.502 271.644 74.049 271.644 72.155 C 271.644 71.361 272.515 71.03 273.242 71.03 C 274.172 71.03 274.85 71.402 275.377 72.098 L 277.119 70.415 C 276.231 69.338 274.733 68.917 273.318 68.917 Z M 284.845 68.917 C 283.406 68.917 282.2 69.646 281.607 70.851 L 281.564 70.851 L 281.564 69.177 L 278.826 69.177 L 278.826 79.763 L 281.564 79.763 L 281.564 74.098 C 281.564 73.522 281.925 71.427 284.502 71.427 C 284.896 71.427 285.298 71.499 285.708 71.596 L 285.817 69.063 C 285.499 68.99 285.18 68.917 284.845 68.917 Z M 287.207 69.185 L 287.207 79.77 L 289.944 79.77 L 289.944 69.185 C 289.936 69.185 287.207 69.185 287.207 69.185 Z M 262.318 70.9 C 264.027 70.9 265.08 71.871 265.107 73.417 L 259.497 73.417 C 259.698 71.896 260.702 70.9 262.318 70.9 Z" style="fill: rgb(35, 31, 32);"/>
  <path class="st1" d="M 254.953 39.882 C 254.953 50.611 263.454 59.325 273.963 59.325 C 284.454 59.325 292.974 50.63 292.974 39.882 C 292.974 29.153 284.473 20.459 273.963 20.459 C 263.473 20.459 254.953 29.153 254.953 39.882" style="fill: url(&quot;#SVGID_1_&quot;);"/>
  <path style="fill: url(&quot;#SVGID_00000066478209147211681180000000696617235222217398_&quot;);" d="M 265.932 24.605 C 264.468 24.662 263.06 24.873 261.671 25.084 C 257.712 28.52 255.141 33.606 254.972 39.288 C 256.098 40.496 257.58 43.222 259.27 44.796 C 259.495 44.7 259.739 44.604 260.001 44.527 C 259.157 43.529 257.994 42.205 257.825 41.609 C 256.961 38.635 257.956 35.851 260.114 35.641 C 262.047 35.449 263.698 32.493 265.068 30.573 C 267.864 26.601 272.181 27.272 271.974 25.276 C 271.731 24.125 271.055 23.76 270.192 23.76 C 268.916 23.741 267.208 24.547 265.932 24.605"/>
  <path style="fill: url(&quot;#SVGID_00000035522476625016532690000014500818151814940820_&quot;);" d="M 260.827 44.277 C 260.546 44.354 260.283 44.431 260.02 44.507 C 259.795 44.566 259.608 44.661 259.288 44.776 C 258.594 45.103 258.087 45.583 257.975 46.619 C 257.768 48.5 259.514 49.997 260.996 50.419 C 262.873 50.976 263.023 50.324 264.018 51.686 C 264.712 52.645 264.843 54.392 265.181 55.563 C 265.369 56.216 265.65 56.849 265.969 57.483 C 267.302 58.116 268.728 58.615 270.229 58.903 C 270.604 56.657 270.436 53.644 270.923 52.339 C 271.937 49.671 272.5 48.481 271.149 45.736 C 268.165 44.872 267.264 44.604 264.243 43.97 C 263.623 43.836 263.248 43.778 262.91 43.778 C 262.347 43.798 261.897 43.97 260.827 44.277"/>
  <path style="fill: url(&quot;#SVGID_00000026152200350366713160000011815320965200904607_&quot;);" d="M 279.312 28.789 C 278.43 30.074 275.352 30.42 274.358 31.879 C 273.588 33.011 274.377 35.218 273.719 36.504 C 273.401 37.099 273.551 38.808 273.926 39.364 C 275.108 41.13 277.098 40.151 278.58 40.784 C 280.401 41.552 280.607 43.702 282.109 45.275 C 283.61 46.849 280.194 49.287 282.99 55.006 C 283.291 55.621 283.647 56.081 284.004 56.388 C 285.899 55.179 287.569 53.644 288.939 51.859 C 289.371 48.961 288.414 48.039 289.596 45.39 C 290.328 43.759 291.604 40.938 292.955 39.019 C 292.73 33.645 290.365 28.846 286.725 25.468 C 286.387 25.564 285.955 25.583 285.355 25.468 C 284.848 25.372 284.379 25.334 283.966 25.334 C 281.151 25.353 280.307 27.33 279.312 28.789"/>
  <path class="st0" d="M 271.787 60.515 C 271.149 60.15 270.361 59.574 269.629 59.075 C 269.328 59.344 269.084 59.766 268.841 60.093 C 269.685 60.381 270.829 60.4 271.787 60.515 M 268.465 58.212 C 267.114 57.175 263.774 53.951 262.404 51.993 C 261.897 52.3 261.334 53.125 260.602 53.279 C 260.32 53.337 259.664 53.413 259.476 53.337 C 259.288 53.26 259.514 52.838 259.72 52.569 C 260.076 52.089 260.602 51.456 261.372 50.861 C 259.72 48.404 258.95 46.6 257.825 43.625 C 257.186 44.028 256.718 44.412 256.154 44.872 C 255.966 45.026 255.441 45.122 255.198 44.891 C 254.728 44.469 254.728 43.721 255.385 43.26 C 255.647 43.068 256.961 42.147 257.28 41.878 C 256.473 39.498 255.797 36.37 255.61 34.738 C 255.066 35.218 254.315 35.756 254.109 35.909 C 253.809 36.005 253.602 35.89 253.508 35.89 C 253.208 39.268 253.565 42.972 254.54 46.331 C 256.229 52.089 260.94 57.578 267.321 59.632 C 267.433 59.344 268.165 58.481 268.465 58.212 M 255.385 32.953 C 255.31 31.706 255.216 29.998 255.216 29.998 C 254.315 31.994 253.79 33.184 253.527 35.506 C 254.146 34.374 255.385 32.953 255.385 32.953 M 264.956 18.693 C 268.653 17.119 272.256 16.255 276.422 16.851 C 276.891 16.908 276.853 17.311 276.347 17.33 L 275.765 17.35 C 272.406 17.407 267.489 18.501 264.937 19.96 C 264.88 21.706 265.2 24.47 265.557 26.639 C 267.883 25.641 271.449 24.624 274.189 24.316 C 272.65 22.647 270.548 21.053 270.286 20.862 C 270.042 20.67 269.91 20.363 269.91 19.96 C 269.948 19.192 270.586 19.115 270.923 19.192 C 272.049 18.962 273.176 18.712 275.108 18.77 C 283.216 18.405 290.628 23.108 293.443 28.443 C 300.612 40.036 293.443 56.005 284.06 60.265 C 280.044 62.089 276.61 62.876 270.267 61.974 C 263.924 61.071 258.725 57.885 254.69 51.206 C 249.717 42.972 252.514 33.395 253.208 31.38 C 256.192 24.182 261.09 20.344 264.956 18.693 M 256.567 27.464 C 256.455 28.328 256.567 29.94 256.793 31.84 C 258.519 30.267 261.84 28.213 264.637 26.946 C 264.318 24.777 263.98 21.322 263.999 20.401 C 261.428 21.841 258.594 24.758 256.53 27.733 M 256.943 33.587 C 257.186 35.314 257.994 39.019 258.725 40.9 C 260.452 39.575 264.355 37.099 266.57 36.101 C 265.8 33.222 265.275 31.399 264.843 28.501 C 261.709 29.921 258.406 32.128 256.943 33.587 M 259.401 42.55 C 260.433 45.544 261.409 47.828 262.704 49.709 C 264.224 48.366 267.321 46.235 269.685 45.084 C 268.897 43.375 267.77 40.151 266.983 37.752 C 263.943 39.288 261.653 40.784 259.401 42.55 M 263.661 51.014 C 265.275 53.125 267.789 55.793 269.535 57.271 C 271.186 55.908 273.063 54.642 274.64 53.855 C 273.288 51.725 271.299 48.615 270.473 46.696 C 267.489 48.059 265.782 49.21 263.661 51.014 M 270.586 58.212 C 271.224 58.864 273.757 60.592 273.757 60.592 C 275.446 60.668 277.567 60.457 279.087 60.188 C 278.242 59.21 276.16 56.196 275.521 55.179 C 273.888 55.851 271.843 57.137 270.586 58.212 M 280.832 59.747 C 281.677 59.459 283.854 58.461 284.304 58.154 C 284.416 56.369 284.398 54.335 284.322 53.106 C 282.033 53.106 278.824 53.797 276.985 54.584 C 278.055 56.331 279.537 58.269 280.832 59.747 M 285.505 57.483 C 287.212 56.388 288.826 55.141 289.99 53.625 C 288.977 53.375 286.744 53.049 285.617 53.125 C 285.636 53.125 285.599 55.851 285.505 57.483 M 290.534 52.914 C 290.854 52.588 291.342 51.878 291.529 51.475 C 291.716 49.825 291.716 46.408 291.66 45.41 C 289.709 44.604 286.669 43.951 284.473 43.798 C 285.186 46.504 285.542 50.458 285.599 51.763 C 286.669 51.878 289.333 52.435 290.534 52.914 M 293.424 45.218 C 293.33 45.525 292.787 45.851 292.543 45.774 C 292.58 46.331 292.449 49.095 292.317 50.17 C 292.693 49.383 293.405 47.425 293.631 46.581 L 293.931 45.371 C 294.232 44.335 295.207 40.765 294.325 36.044 C 293.33 30.804 291.491 28.942 290.835 28.117 C 289.183 27.195 286.706 26.371 286.706 26.371 C 288.958 29.499 289.746 30.957 291.098 34.681 C 291.885 35.103 293.293 35.909 293.481 36.12 C 293.631 36.293 293.631 36.6 293.18 36.6 C 292.805 36.6 292.092 36.235 291.529 36.082 C 292.13 38.116 292.58 41.898 292.543 44.431 C 292.524 44.431 293.499 44.911 293.424 45.218 M 289.653 26.371 C 286.519 22.455 279.443 19.115 271.581 19.633 C 273.345 20.823 274.808 22.609 276.085 24.086 C 278.055 23.894 282.184 24.24 283.741 24.681 C 283.478 24.355 283.159 24.048 283.065 23.856 C 282.84 23.376 283.385 23.261 283.797 23.549 C 284.341 23.894 284.961 24.316 285.449 24.835 C 286.35 25.027 288.601 25.813 289.653 26.371 M 291.641 44.028 C 291.51 41.494 291.135 38.136 290.215 35.775 C 287.795 34.777 284.473 34.163 281.564 34.124 C 282.465 36.274 283.497 39.844 284.022 42.147 C 286.124 42.416 289.409 43.03 291.641 44.028 M 284.829 25.967 C 282.634 25.564 279.443 25.295 277.079 25.449 C 278.693 27.733 279.875 29.729 281.001 32.569 C 284.004 32.647 288.076 33.568 289.746 34.239 C 288.733 31.514 286.838 28.059 284.829 25.967 M 271.092 44.412 C 274.658 42.723 278.599 41.974 282.54 42.089 C 281.47 38.27 280.851 36.504 279.931 34.163 C 275.54 34.354 271.787 35.468 268.39 37.118 C 268.371 37.118 269.629 41.264 271.092 44.412 M 282.953 43.702 C 278.486 43.644 274.583 44.738 271.899 46.082 C 273.026 48.577 275.258 51.878 276.103 53.241 C 277.548 52.684 279.125 52.262 280.326 52.07 C 281.545 51.878 283.159 51.686 284.247 51.725 C 284.06 48.807 283.722 46.849 282.953 43.702 M 267.864 35.545 C 271.092 34.144 274.602 33.011 279.331 32.608 C 278.13 29.652 276.797 27.56 275.239 25.66 C 271.749 25.948 268.578 26.908 265.819 28.059 C 266.232 30.267 267.001 32.915 267.864 35.545" style="fill: rgb(35, 31, 32);"/>
</svg>