<?xml version="1.0" ?>
<!-- Uploaded to: SVG Repo, www.svgrepo.com, Generator: SVG Repo Mixer Tools -->
<svg width="800px" height="800px" viewBox="0 0 24 24" xmlns="http://www.w3.org/2000/svg">
<defs>
<style>.cls-1{fill:#f7bf75;}.cls-2{fill:#f1734d;}.cls-3{fill:#f94060;}.cls-4{fill:#d62657;}.cls-5{fill:#eae2f9;fill-rule:evenodd;}</style>
</defs>
<g id="Discussion">
<path class="cls-1" d="M15.59,7.61V4.75a.94.94,0,0,0-.94-.94H2.93A.94.94,0,0,0,2,4.75V13a.94.94,0,0,0,.93.94h.58a.35.35,0,0,1,.35.35v1.92a.23.23,0,0,0,.14.21.23.23,0,0,0,.25-.07L6.08,14a.34.34,0,0,1,.27-.13H8.42Z"/>
<path class="cls-2" d="M7.91,6.38a.79.79,0,0,0-.79.78V13.9H8.41l7.17-6.29V6.38Z"/>
<path class="cls-3" d="M9.35,7.61a.93.93,0,0,0-.93.94v8.21a.9.9,0,0,0,.27.66.91.91,0,0,0,.66.28h8.3a.31.31,0,0,1,.27.13c.32.39,1.29,1.59,1.83,2.28a.23.23,0,0,0,.25.07.24.24,0,0,0,.14-.21V18a.35.35,0,0,1,.35-.34h.58a.94.94,0,0,0,.93-.94V8.55a.94.94,0,0,0-.93-.94Z"/>
<path class="cls-4" d="M19.77,7.61v8.23A1.87,1.87,0,0,1,18,17.7a0,0,0,0,0-.05.05h0a.17.17,0,0,0,0,.1c.21.25,1.24,1.54,1.81,2.25a.2.2,0,0,0,.25.07.22.22,0,0,0,.14-.2V18a.35.35,0,0,1,.35-.34h.58a.94.94,0,0,0,.93-.94V8.55a.92.92,0,0,0-.93-.94Z"/>
<path class="cls-5" d="M10.73,10.54v-.2a.5.5,0,0,1,1,0v.2a1.42,1.42,0,0,1,.48.31,1.37,1.37,0,0,1,.3.45.49.49,0,0,1-.26.65.5.5,0,0,1-.66-.26.57.57,0,0,0-.08-.13.37.37,0,0,0-.27-.11h0a.39.39,0,0,0,0,.78,1.4,1.4,0,0,1,.5,2.7v.2a.5.5,0,0,1-1,0v-.2a1.46,1.46,0,0,1-.49-.31h0a1.35,1.35,0,0,1-.29-.44.5.5,0,0,1,.91-.39l.09.13a.39.39,0,0,0,.27.11h0a.39.39,0,0,0,.38-.39.39.39,0,0,0-.39-.4,1.39,1.39,0,0,1-.5-2.69Z"/>
<path class="cls-5" d="M14.12,15.26h5.17a.5.5,0,0,0,.5-.5.5.5,0,0,0-.5-.5H14.12a.5.5,0,0,0-.5.5A.5.5,0,0,0,14.12,15.26Z"/>
<path class="cls-5" d="M14.12,13.23h5.17a.5.5,0,0,0,.5-.5.5.5,0,0,0-.5-.5H14.12a.5.5,0,0,0-.5.5A.5.5,0,0,0,14.12,13.23Z"/>
<path class="cls-5" d="M14.12,11.21h5.17a.5.5,0,0,0,.5-.5.5.5,0,0,0-.5-.5H14.12a.5.5,0,0,0-.5.5A.5.5,0,0,0,14.12,11.21Z"/>
</g>
</svg>