<?xml version="1.0" encoding="utf-8"?>
<!-- Uploaded to: SVG Repo, www.svgrepo.com, Generator: SVG Repo Mixer Tools -->
<svg version="1.1" id="Uploaded to svgrepo.com" xmlns="http://www.w3.org/2000/svg" xmlns:xlink="http://www.w3.org/1999/xlink" 
	 width="800px" height="800px" viewBox="0 0 32 32" xml:space="preserve">
<style type="text/css">
	.pictogram_twee{fill:#F8AD89;}
	.pictogram_drie{fill:#F27261;}
	.pictogram_vier{fill:#E54D2E;}
	.pictogram_vijf{fill:#01A59C;}
	.pictogram_zes{fill:#0C6667;}
	.st0{fill:#F4D6B0;}
</style>
<g id="Layer_1_2_">
	<g id="Layer_1_1_">
		<path class="pictogram_zes" d="M3,0C1.35,0,0,1.35,0,3v26c0,1.65,1.35,3,3,3h13V0H3z"/>
		<path class="pictogram_vijf" d="M29,0H16v32h13c1.65,0,3-1.35,3-3V3C32,1.35,30.65,0,29,0z"/>
		<g>
			<path class="pictogram_vier" d="M30.775,10.329C29.975,6.708,26.754,4,22.896,4c-2.917,0-5.45,1.562-6.929,3.871
				C14.492,5.562,11.958,4,9.037,4c-3.858,0-7.079,2.708-7.875,6.329c0,0-1.5,6.125,4.792,11.483c1.183,1.292,2.45,2.5,3.683,3.642
				c2.017,1.871,4.129,3.646,6.329,5.296c2.2-1.65,4.312-3.429,6.329-5.296c1.229-1.142,2.5-2.354,3.683-3.642
				C32.275,16.45,30.775,10.329,30.775,10.329z"/>
			<path class="pictogram_drie" d="M5.954,21.808c1.183,1.292,2.45,2.5,3.683,3.642c2.017,1.871,4.129,3.646,6.329,5.296V7.871
				C14.492,5.562,11.958,4,9.037,4c-3.858,0-7.079,2.708-7.875,6.329C1.163,10.329-0.338,16.45,5.954,21.808z"/>
		</g>
		<path class="pictogram_twee" d="M0,18.812c0.225,1.925,1.104,2.896,2.779,2.962c1,0.038,3.542,0.038,7.017,0.038
			c1.308,0,1.321-2,0-2h-2.1v-1h4.096c1.308,0,1.321-2,0-2h-4.1v-1.004h5.362c1.546,0.096,1.379-1.975,0-2H7.696v-0.996h5.363
			c1.308,0,1.321-2,0-2h-7.28l2.604-0.596c1.275-0.292,0.842-2.242-0.446-1.95C3.37,9.308,0.77,9.287,0.004,11.808v7.004H0z
			 M32,18.812c-0.225,1.925-0.954,2.896-2.625,2.962c-1,0.038-3.542,0.038-7.017,0.038c-1.308,0-1.321-2,0-2h2.1v-1h-4.1
			c-1.308,0-1.321-2,0-2h4.1v-1.004H19.1c-1.546,0.096-1.379-1.975,0-2h5.358v-0.996H19.1c-1.308,0-1.321-2,0-2h7.275l-2.604-0.596
			c-1.275-0.292-0.842-2.242,0.446-1.95c4.567,1.042,7.012,1.021,7.783,3.542V18.812L32,18.812z"/>
	</g>
</g>
</svg>