<?xml version="1.0" encoding="utf-8"?>
<svg xmlns="http://www.w3.org/2000/svg" viewBox="202.3368 156.1945 92.2275 96.089" width="92.2275px" height="96.089px">
  <path d="M 218.904 156.424 C 219.136 156.424 219.368 156.424 219.606 156.424 C 219.862 156.424 220.118 156.424 220.382 156.426 C 220.654 156.426 220.924 156.426 221.203 156.426 C 221.957 156.426 222.711 156.426 223.465 156.428 C 224.278 156.428 225.089 156.428 225.901 156.43 C 227.865 156.43 229.828 156.435 231.791 156.437 C 232.345 156.44 232.899 156.44 233.454 156.441 C 236.895 156.445 240.336 156.452 243.778 156.461 C 244.576 156.462 245.373 156.464 246.171 156.467 C 246.467 156.467 246.467 156.467 246.771 156.469 C 249.981 156.476 253.192 156.48 256.401 156.48 C 259.697 156.482 262.992 156.488 266.287 156.497 C 268.138 156.504 269.988 156.505 271.838 156.505 C 273.414 156.504 274.991 156.507 276.567 156.514 C 277.371 156.518 278.174 156.521 278.979 156.518 C 279.85 156.514 280.723 156.521 281.595 156.527 C 281.848 156.525 282.103 156.523 282.363 156.521 C 283.879 156.54 284.896 156.756 286.065 157.736 C 287.383 159.069 287.661 160.376 287.661 162.174 C 287.657 162.409 287.654 162.645 287.651 162.888 C 287.649 163.134 287.649 163.378 287.647 163.631 C 287.644 164.41 287.635 165.189 287.628 165.968 C 287.624 166.497 287.621 167.027 287.618 167.556 C 287.612 168.853 287.6 170.147 287.586 171.442 C 289.81 171.442 292.034 171.442 294.325 171.442 C 294.325 198.017 294.325 224.592 294.325 251.973 C 281.307 251.986 268.289 252 254.875 252.013 C 250.76 252.019 246.646 252.024 242.407 252.03 C 237.393 252.033 237.393 252.033 235.047 252.034 C 233.405 252.035 231.763 252.037 230.12 252.041 C 228.226 252.045 226.334 252.046 224.439 252.046 C 223.47 252.046 222.502 252.046 221.533 252.049 C 220.657 252.053 219.781 252.053 218.904 252.05 C 218.587 252.05 218.271 252.051 217.955 252.053 C 215.684 252.067 213.992 251.939 212.268 250.377 C 211.374 249.45 211.056 248.504 211.044 247.251 C 211.042 246.995 211.042 246.995 211.038 246.733 C 211.036 246.455 211.036 246.455 211.034 246.172 C 211.032 245.976 211.03 245.78 211.028 245.577 C 211.021 244.928 211.016 244.279 211.01 243.63 C 211.006 243.18 211.001 242.729 210.997 242.279 C 210.985 241.095 210.974 239.911 210.964 238.726 C 210.952 237.517 210.94 236.309 210.929 235.1 C 210.905 232.728 210.882 230.356 210.862 227.985 C 210.078 228.453 209.294 228.922 208.511 229.391 C 208.294 229.521 208.075 229.652 207.85 229.786 C 206.533 230.574 205.232 231.378 203.945 232.211 C 203.472 232.482 203.472 232.482 203.037 232.482 C 202.957 223.952 202.896 215.421 202.859 206.89 C 202.856 205.882 202.851 204.875 202.846 203.868 C 202.845 203.667 202.844 203.466 202.843 203.26 C 202.829 200.014 202.8 196.767 202.769 193.521 C 202.736 190.189 202.717 186.858 202.71 183.526 C 202.705 181.47 202.69 179.415 202.662 177.36 C 202.643 175.95 202.638 174.54 202.643 173.13 C 202.645 172.317 202.641 171.503 202.623 170.69 C 202.519 165.947 202.519 165.947 203.371 164.77 C 204.169 164.041 205.05 163.626 206.065 163.265 C 206.807 162.976 207.457 162.55 208.128 162.128 C 208.391 161.971 208.654 161.815 208.919 161.661 C 209.05 161.584 209.181 161.507 209.317 161.427 C 209.45 161.349 209.584 161.27 209.721 161.189 C 210.003 161.022 210.286 160.856 210.568 160.689 C 211.128 160.359 211.688 160.029 212.248 159.699 C 212.968 159.275 213.687 158.848 214.407 158.422 C 214.61 158.303 214.812 158.183 215.02 158.06 C 215.39 157.84 215.76 157.621 216.13 157.4 C 216.372 157.257 216.372 157.257 216.618 157.111 C 216.757 157.03 216.895 156.949 217.037 156.863 C 217.712 156.473 218.121 156.424 218.904 156.424 Z" fill="#FF6B00" style="transform-origin: 248.451px 204.239px;" transform="matrix(0.999986946583, 0.005017000251, -0.005017000251, 0.999986946583, 1.9381e-8, -5.84e-8)"/>
  <path d="M 287.331 171.462 C 289.627 171.462 291.922 171.462 294.287 171.462 C 294.287 198.038 294.287 224.613 294.287 251.993 C 281.269 252.007 268.251 252.019 254.837 252.033 C 250.723 252.039 246.608 252.045 242.369 252.051 C 237.355 252.053 237.355 252.053 235.01 252.054 C 233.367 252.054 231.725 252.057 230.082 252.061 C 228.189 252.065 226.295 252.067 224.402 252.066 C 223.433 252.066 222.464 252.066 221.496 252.07 C 220.62 252.073 219.743 252.073 218.866 252.071 C 218.55 252.071 218.233 252.072 217.917 252.073 C 215.646 252.087 213.954 251.96 212.231 250.397 C 211.334 249.469 211.028 248.52 210.991 247.268 C 210.986 247.097 210.981 246.927 210.976 246.75 C 210.971 246.565 210.966 246.378 210.961 246.187 C 210.956 245.99 210.951 245.792 210.945 245.59 C 210.895 243.772 210.866 241.954 210.843 240.135 C 210.828 238.916 210.805 237.696 210.767 236.476 C 210.73 235.294 210.711 234.113 210.703 232.932 C 210.697 232.483 210.686 232.034 210.667 231.585 C 210.536 228.198 210.536 228.198 211.347 227.201 C 212.13 226.533 213.007 226.113 213.956 225.719 C 214.552 225.441 214.552 225.441 215.129 224.959 C 217.762 222.944 220.868 223.244 224.038 223.284 C 224.889 223.293 225.74 223.289 226.591 223.288 C 228.062 223.287 229.534 223.293 231.005 223.303 C 233.132 223.319 235.259 223.324 237.386 223.327 C 240.837 223.331 244.29 223.343 247.741 223.362 C 251.092 223.38 254.443 223.393 257.794 223.402 C 258.004 223.403 258.212 223.403 258.428 223.404 C 260.062 223.407 261.698 223.411 263.332 223.415 C 271.332 223.432 279.331 223.471 287.331 223.507 C 287.331 206.332 287.331 189.158 287.331 171.462 Z" fill="#923B00" style="transform-origin: 252.445px 211.768px;" transform="matrix(0.999986946583, 0.005017000251, -0.005017000251, 0.999986946583, -4.0489e-8, -9.3648e-8)"/>
  <path d="M 218.084 156.475 C 218.163 164.95 218.224 173.427 218.261 181.903 C 218.266 182.905 218.269 183.906 218.274 184.907 C 218.275 185.105 218.276 185.305 218.277 185.511 C 218.292 188.736 218.32 191.961 218.352 195.187 C 218.385 198.497 218.403 201.808 218.411 205.118 C 218.415 207.161 218.43 209.202 218.458 211.245 C 218.477 212.645 218.482 214.047 218.478 215.447 C 218.476 216.256 218.479 217.064 218.498 217.871 C 218.602 222.595 218.602 222.595 217.739 223.761 C 216.929 224.495 216.036 224.927 215.008 225.289 C 214.483 225.484 214.037 225.762 213.574 226.071 C 213.172 226.318 212.77 226.564 212.366 226.811 C 211.646 227.253 210.934 227.706 210.229 228.174 C 209.049 228.954 207.843 229.693 206.633 230.427 C 206.246 230.663 205.86 230.9 205.472 231.137 C 205.225 231.288 204.978 231.438 204.731 231.588 C 204.509 231.723 204.286 231.859 204.057 231.998 C 203.521 232.293 203.521 232.293 203.086 232.293 C 203.007 223.761 202.945 215.231 202.908 206.7 C 202.904 205.692 202.899 204.685 202.896 203.677 C 202.894 203.478 202.893 203.276 202.893 203.069 C 202.877 199.823 202.849 196.577 202.818 193.331 C 202.785 189.999 202.766 186.667 202.759 183.336 C 202.754 181.28 202.739 179.225 202.711 177.17 C 202.693 175.76 202.687 174.35 202.692 172.94 C 202.693 172.126 202.691 171.314 202.671 170.5 C 202.568 165.756 202.568 165.756 203.42 164.581 C 204.218 163.85 205.099 163.435 206.114 163.075 C 206.857 162.785 207.507 162.359 208.177 161.937 C 208.44 161.781 208.704 161.625 208.968 161.47 C 209.099 161.393 209.23 161.316 209.364 161.237 C 209.498 161.157 209.632 161.079 209.77 160.999 C 210.336 160.665 210.902 160.332 211.469 159.998 C 211.607 159.917 211.744 159.835 211.887 159.751 C 212.743 159.247 213.597 158.737 214.448 158.224 C 214.65 158.103 214.851 157.983 215.058 157.859 C 215.426 157.638 215.793 157.415 216.16 157.192 C 216.321 157.096 216.48 157.001 216.646 156.901 C 216.783 156.82 216.92 156.736 217.062 156.65 C 217.431 156.475 217.431 156.475 218.084 156.475 Z" fill="#FE9346" style="transform-origin: 210.585px 194.384px;" transform="matrix(0.999986946583, 0.005017000251, -0.005017000251, 0.999986946583, -9.444e-9, -1.90321e-7)"/>
  <path d="M 242.666 171.687 C 250.555 171.687 258.445 171.687 266.574 171.687 C 266.574 173.808 266.574 175.928 266.574 178.113 C 261.769 178.113 256.963 178.113 252.012 178.113 C 252.012 181.082 252.012 184.05 252.012 187.109 C 256.1 187.109 260.189 187.109 264.401 187.109 C 264.401 189.299 264.401 191.49 264.401 193.748 C 260.312 193.748 256.224 193.748 252.012 193.748 C 252.012 198.624 252.012 203.501 252.012 208.525 C 248.928 208.525 245.844 208.525 242.666 208.525 C 242.666 196.369 242.666 184.213 242.666 171.687 Z" fill="#FFFEFD" style="transform-origin: 254.62px 190.106px;" transform="matrix(0.999986946583, 0.005017000251, -0.005017000251, 0.999986946583, 5.3618e-8, -1.58117e-7)"/>
  <path d="M 268.729 231.067 C 269.868 232.033 270.405 233.085 270.528 234.576 C 270.538 236.076 270.538 236.076 270.535 236.679 C 270.535 237.128 270.54 237.575 270.546 238.024 C 270.555 239.873 270.425 241.417 269.448 243.021 C 267.958 244.409 266.229 244.64 264.25 244.618 C 262.778 244.502 261.588 244.062 260.578 242.98 C 259.659 241.87 259.53 240.603 259.519 239.214 C 259.517 239.053 259.515 238.893 259.513 238.727 C 259.511 238.39 259.508 238.051 259.508 237.714 C 259.505 237.201 259.494 236.688 259.483 236.176 C 259.449 232.976 259.449 232.976 260.687 231.71 C 260.787 231.604 260.889 231.498 260.992 231.389 C 262.95 229.577 266.545 229.719 268.729 231.067 Z" fill="#FDFCFC" style="transform-origin: 265.01px 237.331px;" transform="matrix(0.999986946583, 0.005017000251, -0.005017000251, 0.999986946583, 1.4101e-8, -1.13226e-7)"/>
  <path d="M 255.681 230.869 C 256.397 231.433 256.897 232.078 257.209 232.93 C 257.235 233.52 257.235 233.52 257.209 234 C 256.716 234.03 256.222 234.05 255.728 234.068 C 255.316 234.087 255.316 234.087 254.896 234.106 C 254.655 234.071 254.414 234.037 254.166 234 C 253.77 233.475 253.77 233.475 253.514 232.93 C 252.821 232.59 252.094 232.633 251.341 232.716 C 250.637 233.09 250.51 233.245 250.254 234 C 250.239 234.371 250.235 234.741 250.24 235.112 C 250.243 235.402 250.243 235.402 250.246 235.697 C 250.249 235.844 250.252 235.992 250.254 236.143 C 250.447 236.002 250.639 235.861 250.839 235.714 C 252.131 234.99 253.724 235.052 255.132 235.428 C 256.218 235.897 256.879 236.615 257.426 237.641 C 257.602 238.138 257.602 238.138 257.644 238.713 C 257.657 238.873 257.671 239.03 257.685 239.195 C 257.76 240.711 257.477 241.795 256.439 242.937 C 254.981 244.275 253.516 244.615 251.549 244.555 C 249.895 244.402 248.516 243.842 247.428 242.568 C 246.808 241.553 246.677 240.694 246.682 239.531 C 246.681 239.366 246.679 239.201 246.678 239.03 C 246.677 238.682 246.677 238.334 246.679 237.986 C 246.681 237.457 246.674 236.929 246.668 236.402 C 246.668 236.061 246.668 235.722 246.669 235.382 C 246.666 235.226 246.664 235.07 246.661 234.91 C 246.681 233.424 247.191 232.317 248.243 231.257 C 250.436 229.802 253.341 229.516 255.681 230.869 Z" fill="#FDFCFB" style="transform-origin: 252.179px 237.278px;" transform="matrix(0.999986946583, 0.005017000251, -0.005017000251, 0.999986946583, 7.3571e-8, -7.5851e-8)"/>
  <path d="M 242.592 230.538 C 243.457 231.056 244.001 231.491 244.385 232.438 C 244.535 233.596 244.596 234.617 244.032 235.664 C 243.458 236.126 242.891 236.432 242.212 236.722 C 242.327 236.774 242.442 236.825 242.562 236.879 C 244.352 237.716 244.352 237.716 244.82 238.435 C 245.107 239.749 245.204 241.058 244.603 242.29 C 243.538 243.546 242.317 244.171 240.69 244.432 C 238.678 244.603 236.885 244.423 235.257 243.147 C 234.466 242.304 233.952 241.531 233.952 240.363 C 234.478 240.328 235.003 240.303 235.528 240.283 C 235.677 240.271 235.825 240.261 235.977 240.25 C 236.415 240.237 236.415 240.237 237.212 240.363 C 237.726 240.997 237.726 240.997 238.082 241.648 C 238.748 241.976 239.303 241.911 240.038 241.862 C 240.849 241.487 240.849 241.487 241.343 240.791 C 241.423 239.777 241.423 239.777 241.104 238.832 C 240.522 238.273 240.035 238.261 239.237 238.167 C 238.981 238.136 238.724 238.103 238.46 238.07 C 238.165 238.038 238.165 238.038 237.865 238.007 C 237.865 237.23 237.865 236.452 237.865 235.651 C 238.206 235.633 238.546 235.615 238.898 235.597 C 239.626 235.522 239.985 235.471 240.609 235.075 C 241 234.427 241.02 234.037 240.908 233.295 C 240.718 232.858 240.718 232.858 240.256 232.652 C 239.025 232.499 239.025 232.499 237.987 233.053 C 237.643 233.489 237.643 233.489 237.43 233.938 C 236.354 233.938 235.278 233.938 234.17 233.938 C 234.561 232.445 234.986 231.542 236.344 230.725 C 238.253 229.779 240.623 229.644 242.592 230.538 Z" fill="#FDFBFA" style="transform-origin: 239.499px 237.211px;" transform="matrix(0.999986946583, 0.005017000251, -0.005017000251, 0.999986946583, 4.8995e-8, -2.9117e-8)"/>
  <path d="M 265.903 232.565 C 266.432 232.966 266.694 233.269 266.99 233.851 C 267.041 234.818 267.04 235.785 267.042 236.752 C 267.044 237.233 267.051 237.714 267.058 238.195 C 267.06 238.502 267.061 238.808 267.061 239.116 C 267.064 239.534 267.064 239.534 267.067 239.961 C 266.985 240.75 266.823 241.15 266.338 241.775 C 265.585 242.146 264.769 242.121 263.947 241.99 C 263.204 241.313 262.886 240.697 262.826 239.696 C 262.815 238.943 262.809 238.191 262.805 237.438 C 262.802 237.178 262.797 236.918 262.793 236.649 C 262.786 235.277 262.782 234.185 263.512 232.995 C 264.309 232.47 264.977 232.411 265.903 232.565 Z" fill="#943F05" style="transform-origin: 264.929px 237.284px;" transform="matrix(0.999986946583, 0.005017000251, -0.005017000251, 0.999986946583, -7.1513e-8, -4.7078e-8)"/>
  <path d="M 253.285 237.641 C 253.842 237.936 253.842 237.936 254.154 238.498 C 254.303 239.511 254.283 240.357 253.855 241.296 C 253.453 241.769 253.248 241.908 252.627 241.969 C 251.247 241.996 251.247 241.996 250.567 241.644 C 249.89 240.893 249.923 239.967 249.937 239.009 C 250.024 238.498 250.024 238.498 250.554 237.936 C 251.508 237.573 252.276 237.464 253.285 237.641 Z" fill="#943F06" style="transform-origin: 252.085px 239.769px;" transform="matrix(0.999986946583, 0.00501700025, -0.00501700025, 0.999986946583, 1.67513e-7, -6.9517e-8)"/>
</svg>