<svg width="80" height="80" viewBox="0 0 80 80" fill="none" xmlns="http://www.w3.org/2000/svg">
<path d="M0 10C0 4.47715 4.47715 0 10 0H70C75.5228 0 80 4.47715 80 10V70C80 75.5228 75.5228 80 70 80H10C4.47715 80 0 75.5228 0 70V10Z" fill="#9D64ED"/>
<path fill-rule="evenodd" clip-rule="evenodd" d="M69.1899 17.669C70.1274 17.6112 70.6622 18.8303 70.0393 19.6052L64.4947 26.5031C63.8454 27.3109 62.6353 26.7945 62.6481 25.715L62.681 22.9163C62.6854 22.5496 62.5329 22.2021 62.2695 21.9782L60.2594 20.2699C59.4841 19.611 59.8679 18.244 60.8451 18.1837L69.1899 17.669ZM25.0719 35.7833C25.0719 42.3911 19.6705 47.7457 13.0144 47.7457C11.3465 47.7457 10 46.4014 10 44.7532C10 43.1051 11.3465 41.7683 13.0144 41.7683C16.3425 41.7683 19.0432 39.0872 19.0432 35.7833V26.8133C19.0432 25.1576 20.3897 23.8208 22.0575 23.8208C23.7254 23.8208 25.0719 25.1576 25.0719 26.8133V35.7833ZM57.5722 35.7833C57.5722 39.0872 60.2729 41.7683 63.601 41.7683C65.2689 41.7683 66.6154 43.0975 66.6154 44.7532C66.6154 46.409 65.2689 47.7457 63.601 47.7457C56.9449 47.7457 51.5435 42.3911 51.5435 35.7833V26.8133C51.5435 25.1576 52.89 23.8208 54.5578 23.8208C56.2257 23.8208 57.5722 25.1652 57.5722 26.8133V29.4945H59.9669C61.6348 29.4945 62.9889 30.8388 62.9889 32.4946C62.9889 34.1503 61.6348 35.4947 59.9669 35.4947H57.5722V35.7833ZM49.8145 31.5908C49.8221 31.5832 49.8298 31.5832 49.8298 31.5832C48.8811 29.1072 47.1061 26.9349 44.6273 25.507C38.8739 22.1955 31.5292 24.1551 28.2165 29.8819C24.896 35.6011 26.8699 42.9152 32.6156 46.2192C36.8465 48.6496 41.9419 48.2243 45.6601 45.5508L45.6372 45.5204C46.494 44.9963 47.0602 44.0545 47.0602 42.9836C47.0602 41.3354 45.7137 39.9987 44.0535 39.9987C43.2501 39.9987 42.5157 40.3101 41.9801 40.8266C40.1745 42.0342 37.7722 42.2241 35.7448 41.1152L47.8865 35.5175C48.5903 35.3048 49.2177 34.8339 49.6079 34.1504C50.0822 33.3377 50.1281 32.4035 49.8145 31.5908ZM41.6205 30.6794C41.9801 30.8844 42.3014 31.1199 42.5998 31.3781L32.608 35.9732C32.585 34.9175 32.8451 33.8466 33.4113 32.8668C35.0715 30.011 38.7439 29.0312 41.6205 30.6794Z" fill="white"/>
<path d="M20.684 61.0697C19.9466 61.0697 19.2886 60.9064 18.71 60.5797C18.1406 60.2437 17.6926 59.7817 17.366 59.1937C17.0393 58.6057 16.876 57.9337 16.876 57.1777C16.876 56.4124 17.03 55.7404 17.338 55.1617C17.646 54.5737 18.0706 54.1117 18.612 53.7757C19.1533 53.4397 19.774 53.2717 20.474 53.2717C21.1646 53.2717 21.776 53.435 22.308 53.7617C22.84 54.079 23.2553 54.5224 23.554 55.0917C23.8526 55.6517 24.002 56.3004 24.002 57.0377C24.002 57.159 23.9646 57.257 23.89 57.3317C23.8153 57.397 23.7173 57.4297 23.596 57.4297H17.436V56.7017H23.82L23.204 57.1637C23.2226 56.557 23.12 56.0204 22.896 55.5537C22.672 55.087 22.35 54.723 21.93 54.4617C21.5193 54.191 21.034 54.0557 20.474 54.0557C19.942 54.0557 19.466 54.191 19.046 54.4617C18.6353 54.723 18.3086 55.087 18.066 55.5537C17.8326 56.0204 17.716 56.5617 17.716 57.1777C17.716 57.7844 17.842 58.321 18.094 58.7877C18.346 59.2544 18.696 59.623 19.144 59.8937C19.592 60.155 20.1053 60.2857 20.684 60.2857C21.048 60.2857 21.412 60.225 21.776 60.1037C22.1493 59.973 22.4433 59.805 22.658 59.5997C22.7326 59.525 22.8213 59.4877 22.924 59.4877C23.036 59.4784 23.1293 59.5064 23.204 59.5717C23.3066 59.6557 23.358 59.749 23.358 59.8517C23.3673 59.9544 23.3253 60.0477 23.232 60.1317C22.9333 60.4024 22.5413 60.6264 22.056 60.8037C21.58 60.981 21.1226 61.0697 20.684 61.0697Z" fill="white"/>
<path d="M32.1692 60.9997C32.0479 60.9997 31.9452 60.9624 31.8612 60.8877C31.7866 60.8037 31.7492 60.701 31.7492 60.5797V56.8137C31.7492 56.1977 31.6279 55.689 31.3852 55.2877C31.1519 54.8864 30.8299 54.5877 30.4192 54.3917C30.0179 54.1864 29.5606 54.0837 29.0472 54.0837C28.5432 54.0837 28.0906 54.1817 27.6892 54.3777C27.2879 54.5644 26.9706 54.8257 26.7372 55.1617C26.5039 55.4977 26.3872 55.8757 26.3872 56.2957H25.6872C25.7246 55.717 25.8972 55.199 26.2052 54.7417C26.5132 54.275 26.9146 53.911 27.4092 53.6497C27.9039 53.379 28.4499 53.2437 29.0472 53.2437C29.7192 53.2437 30.3212 53.3837 30.8532 53.6637C31.3946 53.9344 31.8192 54.3357 32.1272 54.8677C32.4352 55.3904 32.5892 56.039 32.5892 56.8137V60.5797C32.5892 60.701 32.5472 60.8037 32.4632 60.8877C32.3886 60.9624 32.2906 60.9997 32.1692 60.9997ZM25.9672 60.9997C25.8459 60.9997 25.7432 60.9624 25.6592 60.8877C25.5846 60.8037 25.5472 60.701 25.5472 60.5797V53.7617C25.5472 53.631 25.5846 53.5284 25.6592 53.4537C25.7432 53.379 25.8459 53.3417 25.9672 53.3417C26.0979 53.3417 26.2006 53.379 26.2752 53.4537C26.3499 53.5284 26.3872 53.631 26.3872 53.7617V60.5797C26.3872 60.701 26.3499 60.8037 26.2752 60.8877C26.2006 60.9624 26.0979 60.9997 25.9672 60.9997Z" fill="white"/>
<path d="M38.1871 61.0837C37.4218 61.0837 36.7451 60.9157 36.1571 60.5797C35.5691 60.2437 35.1071 59.7817 34.7711 59.1937C34.4351 58.6057 34.2671 57.9337 34.2671 57.1777C34.2671 56.4124 34.4398 55.7357 34.7851 55.1477C35.1305 54.5597 35.5971 54.0977 36.1851 53.7617C36.7825 53.4257 37.4498 53.2577 38.1871 53.2577C38.9525 53.2577 39.6245 53.4257 40.2031 53.7617C40.7911 54.0977 41.2531 54.5597 41.5891 55.1477C41.9251 55.7357 42.0931 56.4124 42.0931 57.1777L41.6031 57.7377C41.6031 58.391 41.4585 58.9697 41.1691 59.4737C40.8798 59.9777 40.4785 60.3744 39.9651 60.6637C39.4518 60.9437 38.8591 61.0837 38.1871 61.0837ZM38.2431 63.9257C37.4685 63.9257 36.8058 63.781 36.2551 63.4917C35.7138 63.2024 35.2658 62.8337 34.9111 62.3857C34.8365 62.2924 34.7991 62.1944 34.7991 62.0917C34.7991 61.989 34.8458 61.905 34.9391 61.8397C35.0325 61.765 35.1398 61.737 35.2611 61.7557C35.3918 61.7744 35.4898 61.835 35.5551 61.9377C35.8445 62.283 36.2131 62.5677 36.6611 62.7917C37.1091 63.025 37.6365 63.1417 38.2431 63.1417C38.8218 63.1417 39.3351 63.0017 39.7831 62.7217C40.2405 62.4417 40.5998 62.0544 40.8611 61.5597C41.1225 61.0744 41.2531 60.5284 41.2531 59.9217V57.6957L41.6311 57.1777H42.0931V59.9217C42.0931 60.6777 41.9251 61.359 41.5891 61.9657C41.2531 62.5724 40.7958 63.0484 40.2171 63.3937C39.6385 63.7484 38.9805 63.9257 38.2431 63.9257ZM38.1871 60.2997C38.7845 60.2997 39.3118 60.169 39.7691 59.9077C40.2358 59.637 40.5998 59.2684 40.8611 58.8017C41.1225 58.3257 41.2531 57.7844 41.2531 57.1777C41.2531 56.5617 41.1225 56.0204 40.8611 55.5537C40.5998 55.0777 40.2358 54.709 39.7691 54.4477C39.3118 54.177 38.7845 54.0417 38.1871 54.0417C37.5898 54.0417 37.0578 54.177 36.5911 54.4477C36.1245 54.709 35.7605 55.0777 35.4991 55.5537C35.2378 56.0204 35.1071 56.5617 35.1071 57.1777C35.1071 57.7844 35.2378 58.3257 35.4991 58.8017C35.7605 59.2684 36.1245 59.637 36.5911 59.9077C37.0578 60.169 37.5898 60.2997 38.1871 60.2997Z" fill="white"/>
<path d="M44.6091 60.9997C44.4878 60.9997 44.3851 60.9624 44.3011 60.8877C44.2264 60.8037 44.1891 60.701 44.1891 60.5797V53.7617C44.1891 53.631 44.2264 53.5284 44.3011 53.4537C44.3851 53.379 44.4878 53.3417 44.6091 53.3417C44.7398 53.3417 44.8424 53.379 44.9171 53.4537C44.9918 53.5284 45.0291 53.631 45.0291 53.7617V60.5797C45.0291 60.701 44.9918 60.8037 44.9171 60.8877C44.8424 60.9624 44.7398 60.9997 44.6091 60.9997ZM44.5951 51.7317C44.4178 51.7317 44.2638 51.671 44.1331 51.5497C44.0118 51.419 43.9511 51.2604 43.9511 51.0737C43.9511 50.859 44.0164 50.7004 44.1471 50.5977C44.2871 50.4857 44.4411 50.4297 44.6091 50.4297C44.7678 50.4297 44.9124 50.4857 45.0431 50.5977C45.1831 50.7004 45.2531 50.859 45.2531 51.0737C45.2531 51.2604 45.1878 51.419 45.0571 51.5497C44.9358 51.671 44.7818 51.7317 44.5951 51.7317Z" fill="white"/>
<path d="M54.1749 60.9997C54.0536 60.9997 53.9509 60.9624 53.8669 60.8877C53.7923 60.8037 53.7549 60.701 53.7549 60.5797V56.8137C53.7549 56.1977 53.6336 55.689 53.3909 55.2877C53.1576 54.8864 52.8356 54.5877 52.4249 54.3917C52.0236 54.1864 51.5663 54.0837 51.0529 54.0837C50.5489 54.0837 50.0963 54.1817 49.6949 54.3777C49.2936 54.5644 48.9763 54.8257 48.7429 55.1617C48.5096 55.4977 48.3929 55.8757 48.3929 56.2957H47.6929C47.7303 55.717 47.9029 55.199 48.2109 54.7417C48.5189 54.275 48.9203 53.911 49.4149 53.6497C49.9096 53.379 50.4556 53.2437 51.0529 53.2437C51.7249 53.2437 52.3269 53.3837 52.8589 53.6637C53.4003 53.9344 53.8249 54.3357 54.1329 54.8677C54.4409 55.3904 54.5949 56.039 54.5949 56.8137V60.5797C54.5949 60.701 54.5529 60.8037 54.4689 60.8877C54.3943 60.9624 54.2963 60.9997 54.1749 60.9997ZM47.9729 60.9997C47.8516 60.9997 47.7489 60.9624 47.6649 60.8877C47.5903 60.8037 47.5529 60.701 47.5529 60.5797V53.7617C47.5529 53.631 47.5903 53.5284 47.6649 53.4537C47.7489 53.379 47.8516 53.3417 47.9729 53.3417C48.1036 53.3417 48.2063 53.379 48.2809 53.4537C48.3556 53.5284 48.3929 53.631 48.3929 53.7617V60.5797C48.3929 60.701 48.3556 60.8037 48.2809 60.8877C48.2063 60.9624 48.1036 60.9997 47.9729 60.9997Z" fill="white"/>
<path d="M60.0808 61.0697C59.3435 61.0697 58.6855 60.9064 58.1068 60.5797C57.5375 60.2437 57.0895 59.7817 56.7629 59.1937C56.4362 58.6057 56.2729 57.9337 56.2729 57.1777C56.2729 56.4124 56.4268 55.7404 56.7348 55.1617C57.0428 54.5737 57.4675 54.1117 58.0089 53.7757C58.5502 53.4397 59.1708 53.2717 59.8708 53.2717C60.5615 53.2717 61.1728 53.435 61.7048 53.7617C62.2369 54.079 62.6522 54.5224 62.9509 55.0917C63.2495 55.6517 63.3988 56.3004 63.3988 57.0377C63.3988 57.159 63.3615 57.257 63.2868 57.3317C63.2122 57.397 63.1142 57.4297 62.9929 57.4297H56.8329V56.7017H63.2169L62.6008 57.1637C62.6195 56.557 62.5168 56.0204 62.2929 55.5537C62.0689 55.087 61.7468 54.723 61.3269 54.4617C60.9162 54.191 60.4309 54.0557 59.8708 54.0557C59.3388 54.0557 58.8629 54.191 58.4428 54.4617C58.0322 54.723 57.7055 55.087 57.4628 55.5537C57.2295 56.0204 57.1129 56.5617 57.1129 57.1777C57.1129 57.7844 57.2388 58.321 57.4908 58.7877C57.7428 59.2544 58.0928 59.623 58.5409 59.8937C58.9888 60.155 59.5022 60.2857 60.0808 60.2857C60.4448 60.2857 60.8089 60.225 61.1729 60.1037C61.5462 59.973 61.8402 59.805 62.0549 59.5997C62.1295 59.525 62.2182 59.4877 62.3209 59.4877C62.4328 59.4784 62.5262 59.5064 62.6008 59.5717C62.7035 59.6557 62.7548 59.749 62.7548 59.8517C62.7642 59.9544 62.7222 60.0477 62.6288 60.1317C62.3302 60.4024 61.9382 60.6264 61.4529 60.8037C60.9768 60.981 60.5195 61.0697 60.0808 61.0697Z" fill="white"/>
</svg>
