<?xml version="1.0" encoding="utf-8"?>
<svg xmlns="http://www.w3.org/2000/svg" viewBox="21.266 40.377 124.029 124.3" width="124.029px" height="124.3px">
  <path d="M 42.082 40.709 C 43.046 40.702 44.011 40.696 45.004 40.689 C 48.206 40.669 51.408 40.657 54.61 40.647 C 55.703 40.643 56.796 40.639 57.922 40.635 C 63.707 40.614 69.492 40.6 75.277 40.591 C 81.252 40.58 87.226 40.545 93.2 40.505 C 97.794 40.479 102.388 40.471 106.982 40.467 C 109.184 40.462 111.386 40.451 113.588 40.432 C 116.673 40.408 119.758 40.409 122.844 40.416 C 124.204 40.397 124.204 40.397 125.591 40.377 C 131.505 40.425 134.931 41.462 139.786 44.886 C 143.138 48.59 144.905 50.985 144.933 55.958 C 144.941 56.811 144.948 57.663 144.955 58.541 C 144.958 59.478 144.96 60.415 144.963 61.381 C 144.97 62.366 144.976 63.352 144.983 64.367 C 145.003 67.639 145.014 70.911 145.024 74.183 C 145.029 75.299 145.033 76.415 145.037 77.564 C 145.058 83.472 145.072 89.379 145.081 95.286 C 145.092 101.391 145.127 107.495 145.167 113.599 C 145.193 118.29 145.201 122.981 145.205 127.672 C 145.21 129.922 145.221 132.172 145.24 134.423 C 145.264 137.573 145.263 140.723 145.256 143.873 C 145.269 144.802 145.282 145.731 145.295 146.688 C 145.25 152.242 144.634 155.581 140.786 159.886 C 135.667 164.463 131.207 164.47 124.669 164.435 C 123.665 164.445 122.661 164.456 121.627 164.466 C 118.316 164.494 115.007 164.492 111.696 164.487 C 109.39 164.495 107.084 164.504 104.777 164.513 C 99.946 164.528 95.116 164.528 90.284 164.517 C 84.099 164.505 77.915 164.539 71.73 164.586 C 66.968 164.615 62.206 164.617 57.444 164.611 C 55.163 164.612 52.883 164.622 50.603 164.642 C 47.412 164.667 44.224 164.654 41.033 164.63 C 40.095 164.646 39.157 164.661 38.19 164.677 C 32.487 164.585 29.192 163.584 25.116 159.489 C 21.035 154.568 21.49 149.247 21.496 143.142 C 21.489 142.166 21.482 141.189 21.475 140.184 C 21.456 136.961 21.452 133.738 21.45 130.515 C 21.444 128.272 21.437 126.029 21.43 123.786 C 21.418 119.086 21.414 114.386 21.416 109.686 C 21.416 103.666 21.388 97.646 21.354 91.626 C 21.332 86.994 21.328 82.362 21.329 77.731 C 21.326 75.511 21.318 73.292 21.302 71.072 C 21.283 67.967 21.288 64.864 21.3 61.759 C 21.289 60.844 21.278 59.929 21.266 58.986 C 21.321 53.45 22.084 50.272 25.786 45.886 C 31.317 41.013 34.866 40.73 42.082 40.709 Z" fill="#040404"/>
  <path d="M 79.786 49.886 C 82.426 49.886 85.066 49.886 87.786 49.886 C 87.786 52.526 87.786 55.166 87.786 57.886 C 89.518 58.04 89.518 58.04 91.286 58.198 C 94.437 58.572 97.048 59.291 99.973 60.511 C 104.943 62.479 107.531 61.427 112.411 59.323 C 117.459 57.331 122.44 57.62 127.786 57.886 C 127.786 60.196 127.786 62.506 127.786 64.886 C 126.943 65.007 126.1 65.128 125.231 65.253 C 124.135 65.421 123.04 65.588 121.911 65.761 C 120.82 65.923 119.73 66.086 118.606 66.253 C 115.667 66.648 115.667 66.648 113.786 68.886 C 114.838 69.845 114.838 69.845 115.911 70.823 C 125.414 80.353 129.097 91.266 129.173 104.513 C 128.955 115.338 124.184 124.373 117.786 132.886 C 117.232 133.627 116.677 134.368 116.106 135.132 C 115.67 135.711 115.235 136.289 114.786 136.886 C 119.111 138.468 123.215 139.337 127.786 139.886 C 127.786 142.196 127.786 144.506 127.786 146.886 C 121.041 147.402 116.204 146.655 110.11 143.663 C 106.035 142.3 102.705 143.819 98.911 145.448 C 95.008 146.977 91.95 147.146 87.786 146.886 C 87.786 149.196 87.786 151.506 87.786 153.886 C 85.146 153.886 82.506 153.886 79.786 153.886 C 79.786 151.576 79.786 149.266 79.786 146.886 C 78.837 146.968 77.888 147.051 76.911 147.136 C 71.752 147.167 67.431 144.908 62.786 142.886 C 59.156 141.676 58.629 142.187 55.286 143.761 C 49.815 146.101 44.691 146.661 38.786 146.886 C 38.786 144.246 38.786 141.606 38.786 138.886 C 45.716 137.896 45.716 137.896 52.786 136.886 C 51.881 135.652 51.881 135.652 50.958 134.394 C 41.719 121.577 36.973 109.927 39.212 93.823 C 41.497 83.055 47.484 74.9 54.786 66.886 C 49.465 65.803 44.151 64.733 38.786 63.886 C 38.786 61.576 38.786 59.266 38.786 56.886 C 46.111 56.265 51.075 57.906 57.77 60.89 C 62.353 62.404 65.436 61.138 69.723 59.323 C 73.192 57.967 76.031 57.604 79.786 57.886 C 79.786 55.246 79.786 52.606 79.786 49.886 Z" fill="#F5F5F5"/>
  <path d="M 104.786 71.886 C 112.291 75.145 116.765 82.561 119.786 89.886 C 122.427 97.809 122.062 110.234 118.833 118.003 C 115.661 123.707 111.517 128.433 106.786 132.886 C 100.049 129.908 96.014 123.986 92.848 117.511 C 89.19 107.82 88.713 96.568 92.947 86.991 C 95.938 81.043 99.605 76.075 104.786 71.886 Z" fill="#030303"/>
  <path d="M 61.786 71.886 C 70.35 78.179 74.728 86.515 76.786 96.886 C 77.563 103.807 76.462 109.503 73.786 115.886 C 73.519 116.565 73.252 117.244 72.977 117.944 C 70.437 123.737 66.415 127.661 61.786 131.886 C 54.341 128.523 50.579 121.808 47.704 114.401 C 45.321 105.275 45.31 94.71 49.446 86.101 C 52.813 80.535 56.424 75.637 61.786 71.886 Z" fill="#040404"/>
  <path d="M 78.786 121.886 C 79.116 121.886 79.446 121.886 79.786 121.886 C 79.786 127.826 79.786 133.766 79.786 139.886 C 71.911 138.761 71.911 138.761 67.786 136.886 C 68.161 136.473 68.536 136.061 68.923 135.636 C 72.349 131.77 75.192 127.847 77.805 123.39 C 78.129 122.893 78.452 122.397 78.786 121.886 Z" fill="#0B0B0B"/>
  <path d="M 87.786 123.886 C 90.079 126.179 92.301 128.481 94.473 130.886 C 95.096 131.566 95.719 132.247 96.36 132.948 C 97.786 134.886 97.786 134.886 97.786 137.886 C 94.486 138.546 91.186 139.206 87.786 139.886 C 87.786 134.606 87.786 129.326 87.786 123.886 Z" fill="#0E0E0E"/>
  <path d="M 79.786 65.886 C 79.786 71.166 79.786 76.446 79.786 81.886 C 77.319 78.802 74.894 75.735 72.536 72.573 C 72.015 71.876 71.494 71.178 70.958 70.46 C 70.571 69.94 70.184 69.421 69.786 68.886 C 71.838 64.781 75.512 65.886 79.786 65.886 Z" fill="#0A0A0A"/>
  <path d="M 87.786 65.886 C 90.756 66.216 93.726 66.546 96.786 66.886 C 96.786 70.904 95.226 72.377 92.848 75.573 C 92.117 76.567 91.387 77.561 90.633 78.585 C 90.024 79.344 89.414 80.103 88.786 80.886 C 88.456 80.886 88.126 80.886 87.786 80.886 C 87.786 75.936 87.786 70.986 87.786 65.886 Z" fill="#060606"/>
</svg>