
<svg fill="none" height="316.227766" viewBox="0 0 48 48" width="316.227766" xmlns="http://www.w3.org/2000/svg"><path d="m42.4024 0h-36.80854c-1.48238.00494949-2.9026.596148-3.95064 1.64453-1.048032 1.04839-1.6387677 2.46882-1.64322 3.9512v36.80857c.00445484 1.4827.595425 2.9034 1.64386 3.9518 1.04844 1.0485 2.46917 1.6394 3.95188 1.6439h36.80856c1.4827-.0045 2.9034-.5954 3.9518-1.6439 1.0484-1.0484 1.6394-2.4691 1.6439-3.9518v-36.80857c-.0045-1.48303-.5957-2.90402-1.6445-3.95251-1.0489-1.048496-2.4701-1.63926002-3.9531-1.64322z" fill="#000"/><path d="m10 41c1.6569 0 3-1.3431 3-3s-1.3431-3-3-3c-1.65685 0-3 1.3431-3 3s1.34315 3 3 3z" fill="#00d639"/><g fill="#fff"><path d="m25.074 24.296c0 1.692-.468 2.208-1.2 2.208-.72 0-1.176-.516-1.188-2.208.012-1.692.456-2.208 1.188-2.208s1.2.516 1.2 2.208z"/><path d="m31.9131 26.504c.732 0 1.2-.516 1.2-2.208s-.468-2.208-1.2-2.208-1.176.516-1.188 2.208c.012 1.692.468 2.208 1.188 2.208z"/><path clip-rule="evenodd" d="m24 38c7.732 0 14-6.268 14-14s-6.268-14-14-14-14 6.268-14 14 6.268 14 14 14zm-3.774-13.704c0 3.048 1.62 4.296 3.648 4.296 2.052 0 3.648-1.248 3.66-4.296-.012-3.048-1.608-4.296-3.66-4.296-2.028 0-3.648 1.248-3.648 4.296zm-4.1959 4.284c2.04 0 3.564-1.2 3.564-2.832 0-1.104-.732-1.956-2.184-2.22l1.632-1.404c.072-.072.12-.18.12-.276v-1.464c0-.168-.084-.3-.276-.3h-5.64c-.108 0-.192.072-.192.168v1.644c0 .096.084.168.192.168l3.156-.012-2.04 1.704c-.072.06-.108.18-.036.276l.636.9c.084.132.156.168.312.156 1.248-.228 1.8.24 1.8.66 0 .516-.528.768-1.152.768-.72 0-1.32-.3-1.86-.768-.06-.06-.168-.048-.24.06l-1.056 1.344c-.108.132-.072.24.024.324.852.792 1.944 1.104 3.24 1.104zm15.883.012c-2.028 0-3.648-1.248-3.648-4.296s1.62-4.296 3.648-4.296c2.052 0 3.648 1.248 3.66 4.296-.012 3.048-1.608 4.296-3.66 4.296z" fill-rule="evenodd"/></g></svg>